PERFORMER "Tiësto"
TITLE "Essential Mix (2006-07-29) (Live @ Global Gathering 2006)"
FILE "01-tiesto_-_essential_mix_live_at_global_gathering_2006-(Radio_1)-30-07-2006.mp3" MP3
  TRACK 01 AUDIO
    PERFORMER "Booka Shade"
    TITLE "In White Rooms"
    INDEX 01 00:00:00
  TRACK 02 AUDIO
    PERFORMER "Cygnus X"
    TITLE "Orange Theme (Remix)"
    INDEX 01 05:53:15
  TRACK 03 AUDIO
    PERFORMER "Viridian"
    TITLE "Sunhump (Richard Durand Remix)"
    INDEX 01 10:21:50
  TRACK 04 AUDIO
    PERFORMER "Electro Prompt"
    TITLE "Beside Me (Gothek D.C. Remix)"
    INDEX 01 16:31:14
  TRACK 05 AUDIO
    PERFORMER "Tiësto"
    TITLE "Lethal Industry (Richard Durand Remix)"
    INDEX 01 23:45:43
  TRACK 06 AUDIO
    PERFORMER "Robbie Rivera"
    TITLE "Float Away (Gabriel & Dresden Edit)"
    INDEX 01 28:52:59
  TRACK 07 AUDIO
    PERFORMER "Kay D Smith vs. Marc Tall pres. Passive Resistance"
    TITLE "Praiseworthy Tunes (Hoipolloi Mix)"
    INDEX 01 33:31:25
  TRACK 08 AUDIO
    PERFORMER "Tiësto feat. Maxi Jazz"
    TITLE "Dance4Life"
    INDEX 01 35:25:10
  TRACK 09 AUDIO
    PERFORMER "Ekon vs. E-Craig vs. Way Out West"
    TITLE "Existence vs. 1st Time vs. The Fall"
    INDEX 01 41:61:44
  TRACK 10 AUDIO
    PERFORMER "Mac Zimms & Exelios"
    TITLE "World Of Life Anthem 2005 (Mac Zimms Remix)"
    INDEX 01 48:06:34
  TRACK 11 AUDIO
    PERFORMER "Carl B"
    TITLE "Social Suicide"
    INDEX 01 52:34:53
  TRACK 12 AUDIO
    PERFORMER "Klaus Badelt"
    TITLE "He's A Pirate (Tiësto Remix)"
    INDEX 01 58:07:45